PathFileType	4	(X/Y/Z)	C:/Users/opensim2020/Desktop/walking_exp_matlab/subject02_walking07_straight_01.trc	
DataRate	CameraRate	NumFrames	NumMarkers	Units	OrigDataRate	OrigDataStartFrame	OrigNumFrames	
100.00	100.00	7	50	mm	100.00	648	176	
Frame#	Time	LFHD			RFHD			LBHD			RBHD			C7			T10			CLAV			STRN			RBAK			LSHO			LUPA			LELB			LFRM			LWRA			LWRB			LFIN			RSHO			RUPA			RELB			RFRM			RWRA			RWRB			RFIN			LASI			RASI			LPSI			RPSI			LTHI			LKNE			LTIB			LANK			LHEE			LTOE			RTHI			RKNE			RTIB			RANK			RHEE			RTOE			*39			*40			*41			*42			*43			*44			*45			*46			*47			*48			*49			
		X1	Y1	Z1	X2	Y2	Z2	X3	Y3	Z3	X4	Y4	Z4	X5	Y5	Z5	X6	Y6	Z6	X7	Y7	Z7	X8	Y8	Z8	X9	Y9	Z9	X10	Y10	Z10	X11	Y11	Z11	X12	Y12	Z12	X13	Y13	Z13	X14	Y14	Z14	X15	Y15	Z15	X16	Y16	Z16	X17	Y17	Z17	X18	Y18	Z18	X19	Y19	Z19	X20	Y20	Z20	X21	Y21	Z21	X22	Y22	Z22	X23	Y23	Z23	X24	Y24	Z24	X25	Y25	Z25	X26	Y26	Z26	X27	Y27	Z27	X28	Y28	Z28	X29	Y29	Z29	X30	Y30	Z30	X31	Y31	Z31	X32	Y32	Z32	X33	Y33	Z33	X34	Y34	Z34	X35	Y35	Z35	X36	Y36	Z36	X37	Y37	Z37	X38	Y38	Z38	X39	Y39	Z39	X40	Y40	Z40	X41	Y41	Z41	X42	Y42	Z42	X43	Y43	Z43	X44	Y44	Z44	X45	Y45	Z45	X46	Y46	Z46	X47	Y47	Z47	X48	Y48	Z48	X49	Y49	Z49	X50	Y50	Z50	

1	0.000	1364.70740	-956.26038	1716.70850	1506.86084	-968.04187	1694.38049	1343.11914	-1081.48499	1636.64453	1482.70251	-1105.99963	1612.10461	1409.30090	-1140.15173	1498.44714	1411.28809	-1201.56335	1225.35596	1400.02576	-1004.41565	1426.96289	1401.44836	-959.21497	1252.22668	1465.49744	-1206.90356	1325.03857	1230.93066	-1064.64172	1478.41565	1139.66748	-1038.24231	1284.16003	1122.02551	-993.07971	1147.49731	1131.16699	-910.05878	1042.19128	1188.24084	-800.37213	980.59009	1152.82495	-831.27808	950.04565	1157.98181	-775.34875	915.56744	1596.97083	-1070.77917	1454.61938	1673.48450	-1129.65466	1270.59790	1695.17957	-1135.86316	1125.80847	1722.16638	-1124.31934	1007.91803	1710.71265	-1090.83777	875.49969	1738.50928	-1138.93958	878.79688	1746.06897	-1110.80640	812.37225	1264.41467	-997.04352	951.61041	1519.84741	-969.34174	949.93170	1367.34216	-1194.51001	1005.94006	1481.70667	-1188.87073	1007.14484	1237.73865	-1116.32874	645.76038	1273.06702	-1186.27795	455.85641	1269.68030	-1294.60449	294.26260	1310.55432	-1363.08521	80.92516	1355.56494	-1413.23828	62.74662	1325.66980	-1215.40381	25.00599	1616.62439	-986.77850	657.72485	1581.88757	-920.87109	460.64960	1599.09827	-900.92352	275.12518	1577.19568	-850.74152	85.87082	1522.21448	-861.63342	23.65082	1601.34644	-691.37408	75.50304	1447.10071	-1067.95654	1775.32288	-3360.19385	2845.08472	1034.06055																											 
2	0.010	1367.71216	-948.06689	1716.46204	1509.87195	-959.43286	1693.79517	1346.24072	-1072.85315	1635.74048	1485.85315	-1097.15601	1610.95410	1412.58862	-1130.91687	1497.33911	1414.88721	-1191.66675	1224.08350	1402.79333	-994.99274	1426.20642	1404.12036	-949.15442	1251.60925	1468.99097	-1197.01648	1323.79077	1233.91565	-1056.15967	1477.45410	1142.94836	-1031.35925	1282.80042	1125.21973	-988.04016	1145.82971	1133.00061	-907.11835	1038.59680	1188.83484	-798.29810	974.20453	1153.21057	-830.83386	944.45428	1158.01465	-775.28064	908.73724	1599.98389	-1060.77905	1453.61316	1676.26270	-1120.01660	1269.64587	1697.54980	-1126.83838	1124.93945	1724.40015	-1116.33411	1007.00269	1713.05029	-1084.06604	874.06299	1740.74646	-1132.19788	878.00629	1748.48975	-1104.90515	811.35278	1266.78027	-987.59723	950.53638	1522.10168	-958.27026	949.06470	1370.91309	-1184.45325	1005.12695	1485.29810	-1178.21570	1006.19293	1239.49512	-1109.12256	645.67053	1274.49194	-1179.60278	455.80692	1270.42126	-1290.25769	296.02420	1310.36023	-1361.91980	83.39096	1355.26807	-1412.19458	65.98107	1325.72754	-1215.42847	25.05031	1618.47583	-974.46191	656.97870	1583.29663	-910.93317	459.29382	1599.29688	-893.81836	273.09763	1576.90625	-847.10022	83.79137	1521.91907	-860.41980	23.98361	1600.89648	-687.81323	68.21798	1450.38550	-1059.95544	1774.36633	-3360.46021	2845.24146	1033.88196																											 
3	0.020	1371.00586	-939.54712	1716.56104	1513.00525	-950.70923	1693.46338	1349.44165	-1064.13281	1634.99585	1489.04919	-1088.03918	1609.94873	1415.95032	-1121.68811	1496.45166	1418.62720	-1181.73035	1223.29614	1405.59692	-985.42480	1425.57629	1406.71179	-939.29620	1251.22046	1472.37964	-1186.99255	1322.89441	1236.94690	-1047.59021	1476.57068	1146.51563	-1024.09912	1281.83972	1128.54590	-982.66602	1144.05847	1135.14563	-904.14301	1034.85876	1189.59961	-796.56384	967.44666	1153.98083	-830.09900	938.62195	1157.73071	-776.09351	901.57007	1603.19446	-1050.60474	1452.82959	1679.17578	-1110.24731	1268.86694	1699.83484	-1117.34839	1123.84058	1726.75854	-1108.07092	1006.15771	1715.46021	-1076.84363	872.93054	1743.07813	-1125.07031	877.35150	1750.81921	-1098.44629	810.39569	1269.20129	-977.81628	949.51172	1524.37170	-947.70697	948.18927	1374.49207	-1174.37488	1004.30817	1488.83765	-1167.49927	1005.38867	1241.41370	-1101.14685	645.20380	1275.90234	-1172.57666	455.93726	1271.20605	-1285.55603	297.88397	1310.02734	-1360.45203	86.23145	1354.84631	-1410.81006	69.75771	1325.77124	-1215.39575	25.16005	1620.51563	-962.05969	656.93622	1586.02930	-900.74213	459.13217	1599.01709	-886.35760	271.95087	1577.70898	-842.88678	83.47373	1522.36182	-858.70978	26.08716	1601.47217	-683.32477	59.01619	1453.78345	-1051.73877	1773.58008	-3360.25146	2845.12842	1033.86829																											 
4	0.030	1374.03918	-931.14716	1716.76868	1516.19006	-941.86615	1693.71313	1352.71057	-1055.13220	1634.71094	1492.31848	-1078.75073	1609.38879	1419.35034	-1112.38147	1495.89063	1422.24927	-1171.84241	1223.20691	1408.51526	-975.75085	1425.29053	1409.20569	-929.80273	1251.01660	1475.76831	-1176.96521	1322.49377	1239.89246	-1038.88452	1476.01550	1149.71277	-1016.89948	1280.59070	1131.87720	-977.66449	1142.41760	1137.07190	-901.81287	1031.33826	1189.99927	-795.76440	961.04626	1154.56348	-830.67719	933.23938	1157.60059	-777.32043	894.57611	1606.42920	-1040.58325	1452.34277	1682.21167	-1100.22583	1268.23706	1702.30127	-1107.82043	1123.18335	1729.14905	-1099.52014	1005.47577	1717.84082	-1069.24731	872.05017	1745.33740	-1117.51416	876.79327	1753.03528	-1091.46228	809.50043	1271.71985	-967.89752	948.61835	1526.81372	-937.28558	947.68561	1377.96643	-1164.28027	1003.78168	1492.31506	-1156.75171	1005.22314	1243.55566	-1092.54431	644.82892	1277.45715	-1165.03821	456.22662	1272.20300	-1280.63977	300.15616	1309.64148	-1358.71423	89.52533	1354.45117	-1409.64746	74.54407	1325.57214	-1215.22571	25.23943	1622.59302	-950.05823	657.94305	1588.80310	-890.07959	460.06049	1600.96350	-878.11041	272.59787	1580.05530	-838.09381	83.45127	1524.11621	-856.72595	27.72452	1600.44702	-678.95819	52.30601	1457.39001	-1043.64380	1773.41406	-3357.23096	2845.82300	1034.15540																											 
5	0.040	1377.54797	-922.44092	1717.76233	1519.47095	-933.02405	1694.14807	1356.05237	-1046.21741	1634.85583	1495.68335	-1069.49207	1609.23572	1422.75964	-1102.74268	1495.88196	1425.62170	-1161.94678	1223.13794	1411.45679	-966.13434	1425.49451	1412.30042	-919.47382	1251.34131	1479.34778	-1166.82654	1322.45520	1242.76746	-1030.04138	1475.78015	1153.23242	-1009.97943	1279.81128	1135.69873	-972.37189	1140.82837	1139.08105	-900.02997	1027.94617	1190.77649	-795.48615	954.09717	1155.14050	-830.99310	927.69244	1157.05701	-779.55121	887.60706	1609.70496	-1030.33740	1451.89038	1685.26990	-1090.10828	1267.82495	1704.82153	-1098.05176	1122.73059	1731.61707	-1090.65759	1005.00458	1720.13977	-1061.28528	871.32263	1747.58289	-1109.60425	876.48383	1755.34668	-1084.13831	809.08093	1274.41833	-957.74628	947.81927	1529.32788	-926.98187	947.50201	1381.23657	-1154.19592	1003.53461	1495.65747	-1146.07886	1005.91968	1245.76367	-1083.67200	644.86792	1278.87939	-1156.90015	456.70938	1273.10205	-1275.10657	302.84174	1309.55688	-1356.75940	93.22080	1353.95728	-1407.47693	79.04202	1325.46570	-1214.97546	25.21578	1625.21277	-938.22968	659.65289	1591.33289	-878.65613	461.69806	1604.91516	-868.97705	274.41440	1582.61389	-833.60059	83.52211	1526.18250	-855.15912	29.05701	1599.63513	-675.16534	47.91943	1460.71985	-1035.27759	1773.32788	-3360.26587	2845.12061	1034.15686																											 
6	0.050	1380.66394	-913.94946	1718.47021	1522.75098	-924.04175	1694.68201	1359.39368	-1037.11572	1635.14746	1499.02454	-1060.16858	1609.23376	1426.21411	-1092.79944	1496.19324	1428.80713	-1152.12097	1223.30554	1414.38513	-956.44507	1425.82092	1415.09363	-909.47510	1251.73022	1482.95349	-1156.64563	1322.54578	1245.61182	-1020.93311	1475.80872	1156.76990	-1002.71014	1279.07983	1139.28735	-967.54236	1139.66064	1141.20105	-898.41980	1024.48279	1191.45056	-795.58923	947.24219	1155.84827	-832.55420	922.39124	1156.88318	-782.01337	880.61798	1613.15503	-1019.70251	1451.78186	1688.33728	-1079.59766	1267.62610	1707.43274	-1087.95178	1122.55249	1734.16638	-1081.37708	1004.81970	1722.42639	-1052.84448	870.93219	1749.91028	-1101.15222	876.44086	1757.61499	-1076.33691	808.91730	1277.16077	-947.56281	947.21136	1532.23828	-916.63440	947.88647	1384.10120	-1143.83423	1003.63574	1498.70618	-1135.54004	1007.24805	1248.02856	-1074.09241	644.86444	1280.30737	-1148.16895	457.46518	1273.96191	-1269.00623	305.91019	1308.99231	-1354.38696	97.50957	1353.49719	-1405.33533	84.75681	1325.34436	-1214.75598	25.18497	1627.98865	-926.91040	661.56677	1593.84387	-866.50208	464.05032	1608.22961	-859.33215	276.40842	1584.42957	-829.98059	84.11832	1527.92017	-854.03723	30.13981	1599.51880	-672.65765	44.75333	1464.32397	-1026.89368	1773.66101	-3360.32202	2845.22119	1034.07593																											 
7	0.060	1384.23169	-904.97583	1719.53796	1526.03796	-914.90942	1695.33691	1362.79187	-1028.08533	1635.61829	1502.35535	-1050.72119	1609.34583	1429.60657	-1082.77539	1496.70569	1431.85376	-1142.32898	1223.73035	1417.35144	-946.67346	1426.39453	1418.09668	-899.29987	1252.36646	1486.53784	-1146.54102	1322.95593	1248.49902	-1011.60583	1476.09558	1160.37781	-995.33112	1278.74072	1142.95935	-962.78125	1138.88416	1143.21655	-897.45612	1021.49750	1191.43469	-796.44757	940.57904	1156.46167	-834.59125	917.34125	1156.44495	-785.88715	873.88867	1616.35864	-1009.22852	1452.05725	1691.52209	-1068.91687	1267.82483	1710.07800	-1077.69922	1122.91211	1736.55457	-1071.62317	1004.97711	1724.67712	-1043.95569	870.90485	1752.25305	-1092.23462	876.65631	1759.76465	-1067.89526	809.01215	1280.11353	-937.24951	946.98590	1535.32788	-906.30939	948.81573	1386.76074	-1133.10437	1004.23828	1501.51770	-1125.32568	1009.01233	1250.16052	-1064.42908	645.24139	1281.72449	-1138.64746	458.29742	1274.89990	-1262.31702	309.22253	1308.53735	-1351.59741	102.12983	1353.19446	-1402.37781	90.45611	1325.16418	-1214.47559	25.18850	1630.77112	-915.38867	663.48499	1595.47229	-854.20801	465.88272	1611.17566	-849.92963	277.97354	1585.06177	-827.64282	84.69882	1528.63574	-853.46393	30.68012	1600.01648	-671.90802	42.43570	1467.92993	-1018.01709	1773.82068	-3360.31982	2845.07861	1033.95410																											 
